<mxfile host="app.diagrams.net" agent="Mozilla/5.0 (Windows NT 10.0; Win64; x64) AppleWebKit/537.36 (KHTML, like Gecko) Chrome/132.0.0.0 Safari/537.36" version="26.0.6">
  <diagram name="Page-1" id="7mZlgWvUrZLeXDJtOe3E">
    <mxGraphModel dx="989" dy="542" grid="1" gridSize="10" guides="1" tooltips="1" connect="1" arrows="1" fold="1" page="1" pageScale="1" pageWidth="850" pageHeight="1100" math="0" shadow="0">
      <root>
        <mxCell id="0" />
        <mxCell id="1" parent="0" />
        <mxCell id="s7EpYhnkcGmGgZEvyHjv-19" value="" style="verticalLabelPosition=bottom;verticalAlign=top;html=1;strokeWidth=5;shape=mxgraph.arrows2.arrow;dy=0.6;dx=40;notch=0;fontStyle=1;fontSize=15;" parent="1" vertex="1">
          <mxGeometry x="425" y="735" width="70" height="70" as="geometry" />
        </mxCell>
        <mxCell id="s7EpYhnkcGmGgZEvyHjv-13" value="" style="verticalLabelPosition=bottom;verticalAlign=top;html=1;strokeWidth=5;shape=mxgraph.arrows2.arrow;dy=0.6;dx=40;notch=0;fontStyle=1;fontSize=15;" parent="1" vertex="1">
          <mxGeometry x="270" y="735" width="80" height="70" as="geometry" />
        </mxCell>
        <mxCell id="s7EpYhnkcGmGgZEvyHjv-12" value="Collecting&lt;div&gt;raw data&lt;/div&gt;" style="shape=parallelogram;html=1;strokeWidth=5;perimeter=parallelogramPerimeter;whiteSpace=wrap;rounded=1;arcSize=12;size=0.23;fontStyle=1;fontSize=15;" parent="1" vertex="1">
          <mxGeometry x="170" y="735" width="130" height="55" as="geometry" />
        </mxCell>
        <mxCell id="s7EpYhnkcGmGgZEvyHjv-14" value="Curate&amp;nbsp;&lt;div&gt;the data&lt;/div&gt;" style="rounded=1;whiteSpace=wrap;html=1;absoluteArcSize=1;arcSize=14;strokeWidth=5;fontStyle=1;fontSize=15;" parent="1" vertex="1">
          <mxGeometry x="350" y="740" width="75" height="60" as="geometry" />
        </mxCell>
        <mxCell id="dwp9xcFArM2dCc6Hht3G-12" style="edgeStyle=orthogonalEdgeStyle;rounded=0;orthogonalLoop=1;jettySize=auto;html=1;exitX=0.291;exitY=0.991;exitDx=0;exitDy=0;entryX=0.702;entryY=0.003;entryDx=0;entryDy=0;exitPerimeter=0;entryPerimeter=0;strokeWidth=5;" edge="1" parent="1" source="s7EpYhnkcGmGgZEvyHjv-16" target="s7EpYhnkcGmGgZEvyHjv-21">
          <mxGeometry relative="1" as="geometry" />
        </mxCell>
        <mxCell id="s7EpYhnkcGmGgZEvyHjv-16" value="Data augmentation" style="rounded=1;whiteSpace=wrap;html=1;absoluteArcSize=1;arcSize=14;strokeWidth=5;fontStyle=1;fontSize=15;" parent="1" vertex="1">
          <mxGeometry x="660" y="745" width="110" height="50" as="geometry" />
        </mxCell>
        <mxCell id="s7EpYhnkcGmGgZEvyHjv-18" value="Labeling&lt;div&gt;data&lt;/div&gt;" style="rounded=1;whiteSpace=wrap;html=1;absoluteArcSize=1;arcSize=14;strokeWidth=5;fontStyle=1;fontSize=15;" parent="1" vertex="1">
          <mxGeometry x="500" y="740" width="100" height="60" as="geometry" />
        </mxCell>
        <mxCell id="dwp9xcFArM2dCc6Hht3G-11" style="edgeStyle=orthogonalEdgeStyle;rounded=0;orthogonalLoop=1;jettySize=auto;html=1;entryX=0.25;entryY=0;entryDx=0;entryDy=0;strokeWidth=5;" edge="1" parent="1" target="s7EpYhnkcGmGgZEvyHjv-21">
          <mxGeometry relative="1" as="geometry">
            <mxPoint x="620" y="770" as="sourcePoint" />
          </mxGeometry>
        </mxCell>
        <mxCell id="s7EpYhnkcGmGgZEvyHjv-21" value="Add newly labeled&lt;div&gt;data to the big dataset&lt;/div&gt;" style="rounded=1;whiteSpace=wrap;html=1;absoluteArcSize=1;arcSize=14;strokeWidth=5;fontStyle=1;fontSize=15;" parent="1" vertex="1">
          <mxGeometry x="580" y="835" width="160" height="70" as="geometry" />
        </mxCell>
        <mxCell id="s7EpYhnkcGmGgZEvyHjv-23" value="" style="verticalLabelPosition=bottom;verticalAlign=top;html=1;strokeWidth=5;shape=mxgraph.arrows2.arrow;dy=0.6;dx=40;notch=0;fontStyle=1;fontSize=15;" parent="1" vertex="1">
          <mxGeometry x="740" y="835" width="70" height="70" as="geometry" />
        </mxCell>
        <mxCell id="s7EpYhnkcGmGgZEvyHjv-24" value="Running the training loop" style="rounded=1;whiteSpace=wrap;html=1;absoluteArcSize=1;arcSize=14;strokeWidth=5;fontStyle=1;fontSize=15;" parent="1" vertex="1">
          <mxGeometry x="810" y="820" width="100" height="100" as="geometry" />
        </mxCell>
        <mxCell id="s7EpYhnkcGmGgZEvyHjv-25" value="" style="verticalLabelPosition=bottom;verticalAlign=top;html=1;strokeWidth=5;shape=mxgraph.arrows2.arrow;dy=0.6;dx=40;notch=0;fontStyle=1;fontSize=15;" parent="1" vertex="1">
          <mxGeometry x="910" y="835" width="70" height="70" as="geometry" />
        </mxCell>
        <mxCell id="s7EpYhnkcGmGgZEvyHjv-27" style="edgeStyle=orthogonalEdgeStyle;rounded=0;orthogonalLoop=1;jettySize=auto;html=1;fontStyle=1;fontSize=15;strokeWidth=5;entryX=0;entryY=0.5;entryDx=0;entryDy=0;exitX=0.5;exitY=1;exitDx=0;exitDy=0;" parent="1" source="s7EpYhnkcGmGgZEvyHjv-26" target="s7EpYhnkcGmGgZEvyHjv-12" edge="1">
          <mxGeometry relative="1" as="geometry">
            <Array as="points">
              <mxPoint x="1035" y="963" />
              <mxPoint x="140" y="963" />
              <mxPoint x="140" y="762" />
            </Array>
            <mxPoint x="1225" y="907.52" as="sourcePoint" />
            <mxPoint x="184.95000000000005" y="790.02" as="targetPoint" />
          </mxGeometry>
        </mxCell>
        <mxCell id="s7EpYhnkcGmGgZEvyHjv-28" value="&lt;font&gt;REPEAT&lt;/font&gt;" style="edgeLabel;html=1;align=center;verticalAlign=middle;resizable=0;points=[];fontStyle=1;fontSize=21;" parent="s7EpYhnkcGmGgZEvyHjv-27" vertex="1" connectable="0">
          <mxGeometry x="0.0194" y="2" relative="1" as="geometry">
            <mxPoint x="135" as="offset" />
          </mxGeometry>
        </mxCell>
        <mxCell id="s7EpYhnkcGmGgZEvyHjv-26" value="Evaluate&lt;div&gt;the model&lt;/div&gt;" style="rounded=1;whiteSpace=wrap;html=1;absoluteArcSize=1;arcSize=14;strokeWidth=5;fontStyle=1;fontSize=15;" parent="1" vertex="1">
          <mxGeometry x="985" y="820" width="100" height="100" as="geometry" />
        </mxCell>
        <mxCell id="dwp9xcFArM2dCc6Hht3G-4" style="edgeStyle=orthogonalEdgeStyle;rounded=0;orthogonalLoop=1;jettySize=auto;html=1;entryX=0;entryY=0.5;entryDx=0;entryDy=0;strokeWidth=6;" edge="1" parent="1" source="s7EpYhnkcGmGgZEvyHjv-18" target="s7EpYhnkcGmGgZEvyHjv-16">
          <mxGeometry relative="1" as="geometry">
            <mxPoint x="639.9999999999998" y="770" as="targetPoint" />
          </mxGeometry>
        </mxCell>
      </root>
    </mxGraphModel>
  </diagram>
</mxfile>
